<svg height="50" version="1.1" width="347" xmlns="http://www.w3.org/2000/svg" viewBox="0 0 347 50">
  <g>
    <g transform="matrix(1,0,0,1,0,0)">
      <path
        d="M21.03-24.61L21.03-26.31Q21.03-26.85 20.66-27.21L20.66-27.21Q20.28-27.60 19.76-27.60L19.76-27.60L3.21-27.60Q2.68-27.60 2.30-27.21L2.30-27.21Q1.94-26.85 1.94-26.31L1.94-26.31L1.94-12.94Q1.94-12.42 2.30-12.03L2.30-12.03Q2.68-11.67 3.21-11.67L3.21-11.67L15.52-11.67Q16.05-11.67 16.41-11.29L16.41-11.29Q16.79-10.93 16.79-10.40L16.79-10.40L16.79-5.52Q16.79-5.00 16.41-4.62L16.41-4.62Q16.05-4.25 15.52-4.25L15.52-4.25L3.21-4.25Q2.68-4.25 2.30-3.87L2.30-3.87Q1.94-3.51 1.94-2.96L1.94-2.96L1.94-1.27Q1.94-0.75 2.30-0.38L2.30-0.38Q2.68 0 3.21 0L3.21 0L19.76 0Q20.28 0 20.66-0.38L20.66-0.38Q21.03-0.75 21.03-1.27L21.03-1.27L21.03-14.64Q21.03-15.18 20.66-15.54L20.66-15.54Q20.28-15.93 19.76-15.93L19.76-15.93L7.46-15.93Q6.93-15.93 6.55-16.29L6.55-16.29Q6.19-16.67 6.19-17.20L6.19-17.20L6.19-22.07Q6.19-22.60 6.55-22.96L6.55-22.96Q6.93-23.34 7.46-23.34L7.46-23.34L19.76-23.34Q20.28-23.34 20.66-23.71L20.66-23.71Q21.03-24.09 21.03-24.61L21.03-24.61ZM39.98-15.93L31.91-15.93Q31.39-15.93 31.00-16.29L31.00-16.29Q30.64-16.67 30.64-17.20L30.64-17.20L30.64-22.07Q30.64-22.60 31.00-22.96L31.00-22.96Q31.39-23.34 31.91-23.34L31.91-23.34L39.98-23.34Q40.50-23.34 40.86-22.96L40.86-22.96Q41.25-22.60 41.25-22.07L41.25-22.07L41.25-17.20Q41.25-16.67 40.86-16.29L40.86-16.29Q40.50-15.93 39.98-15.93L39.98-15.93ZM44.21-27.60L27.66-27.60Q27.13-27.60 26.77-27.21L26.77-27.21Q26.39-26.85 26.39-26.31L26.39-26.31L26.39-1.27Q26.39-0.75 26.77-0.38L26.77-0.38Q27.13 0 27.66 0L27.66 0L29.35 0Q29.90 0 30.26-0.38L30.26-0.38Q30.64-0.75 30.64-1.27L30.64-1.27L30.64-10.40Q30.64-10.93 31.00-11.29L31.00-11.29Q31.39-11.67 31.91-11.67L31.91-11.67L39.98-11.67Q40.50-11.67 40.86-11.29L40.86-11.29Q41.25-10.93 41.25-10.40L41.25-10.40L41.25-1.27Q41.25-0.75 41.61-0.38L41.61-0.38Q41.99 0 42.52 0L42.52 0L44.21 0Q44.73 0 45.12-0.38L45.12-0.38Q45.48-0.75 45.48-1.27L45.48-1.27L45.48-26.31Q45.48-26.85 45.12-27.21L45.12-27.21Q44.73-27.60 44.21-27.60L44.21-27.60ZM69.71-27.60L53.16-27.60Q52.64-27.60 52.27-27.21L52.27-27.21Q51.89-26.85 51.89-26.31L51.89-26.31L51.89-1.27Q51.89-0.75 52.27-0.38L52.27-0.38Q52.64 0 53.16 0L53.16 0L54.85 0Q55.40 0 55.76-0.38L55.76-0.38Q56.14-0.75 56.14-1.27L56.14-1.27L56.14-22.07Q56.14-22.60 56.51-22.96L56.51-22.96Q56.89-23.34 57.41-23.34L57.41-23.34L65.48-23.34Q66.00-23.34 66.36-22.96L66.36-22.96Q66.75-22.60 66.75-22.07L66.75-22.07L66.75-1.27Q66.75-0.75 67.11-0.38L67.11-0.38Q67.49 0 68.02 0L68.02 0L69.71 0Q70.23 0 70.62-0.38L70.62-0.38Q70.98-0.75 70.98-1.27L70.98-1.27L70.98-26.31Q70.98-26.85 70.62-27.21L70.62-27.21Q70.23-27.60 69.71-27.60L69.71-27.60ZM93.50-24.61L93.50-26.31Q93.50-26.85 93.13-27.21L93.13-27.21Q92.75-27.60 92.23-27.60L92.23-27.60L75.68-27.60Q75.15-27.60 74.77-27.21L74.77-27.21Q74.41-26.85 74.41-26.31L74.41-26.31L74.41-24.61Q74.41-24.09 74.77-23.71L74.77-23.71Q75.15-23.34 75.68-23.34L75.68-23.34L80.56-23.34Q81.08-23.34 81.46-22.96L81.46-22.96Q81.83-22.60 81.83-22.07L81.83-22.07L81.83-1.27Q81.83-0.75 82.21-0.38L82.21-0.38Q82.57 0 83.12 0L83.12 0L84.81 0Q85.33 0 85.70-0.38L85.70-0.38Q86.08-0.75 86.08-1.27L86.08-1.27L86.08-22.07Q86.08-22.60 86.44-22.96L86.44-22.96Q86.82-23.34 87.35-23.34L87.35-23.34L92.23-23.34Q92.75-23.34 93.13-23.71L93.13-23.71Q93.50-24.09 93.50-24.61L93.50-24.61ZM99.75-27.60L97.57-27.60Q97.15-27.60 96.84-27.28L96.84-27.28Q96.54-26.97 96.54-26.55L96.54-26.55L96.54-1.03Q96.54-0.60 96.84-0.30L96.84-0.30Q97.15 0 97.57 0L97.57 0L99.75 0Q100.19 0 100.49-0.30L100.49-0.30Q100.80-0.60 100.80-1.03L100.80-1.03L100.80-26.55Q100.80-26.97 100.49-27.28L100.49-27.28Q100.19-27.60 99.75-27.60L99.75-27.60ZM120.77-15.93L112.71-15.93Q112.19-15.93 111.80-16.29L111.80-16.29Q111.44-16.67 111.44-17.20L111.44-17.20L111.44-22.07Q111.44-22.60 111.80-22.96L111.80-22.96Q112.19-23.34 112.71-23.34L112.71-23.34L120.77-23.34Q121.30-23.34 121.66-22.96L121.66-22.96Q122.04-22.60 122.04-22.07L122.04-22.07L122.04-17.20Q122.04-16.67 121.66-16.29L121.66-16.29Q121.30-15.93 120.77-15.93L120.77-15.93ZM125.01-27.60L108.46-27.60Q107.93-27.60 107.57-27.21L107.57-27.21Q107.19-26.85 107.19-26.31L107.19-26.31L107.19-1.27Q107.19-0.75 107.57-0.38L107.57-0.38Q107.93 0 108.46 0L108.46 0L110.15 0Q110.69 0 111.06-0.38L111.06-0.38Q111.44-0.75 111.44-1.27L111.44-1.27L111.44-10.40Q111.44-10.93 111.80-11.29L111.80-11.29Q112.19-11.67 112.71-11.67L112.71-11.67L120.77-11.67Q121.30-11.67 121.66-11.29L121.66-11.29Q122.04-10.93 122.04-10.40L122.04-10.40L122.04-1.27Q122.04-0.75 122.41-0.38L122.41-0.38Q122.79 0 123.31 0L123.31 0L125.01 0Q125.53 0 125.91-0.38L125.91-0.38Q126.28-0.75 126.28-1.27L126.28-1.27L126.28-26.31Q126.28-26.85 125.91-27.21L125.91-27.21Q125.53-27.60 125.01-27.60L125.01-27.60ZM136.86-5.52L136.86-22.07Q136.86-22.60 137.22-22.96L137.22-22.96Q137.61-23.34 138.13-23.34L138.13-23.34L150.43-23.34Q150.95-23.34 151.33-23.71L151.33-23.71Q151.70-24.09 151.70-24.61L151.70-24.61L151.70-26.31Q151.70-26.85 151.33-27.21L151.33-27.21Q150.95-27.60 150.43-27.60L150.43-27.60L133.88-27.60Q133.35-27.60 132.99-27.21L132.99-27.21Q132.61-26.85 132.61-26.31L132.61-26.31L132.61-1.27Q132.61-0.75 132.99-0.38L132.99-0.38Q133.35 0 133.88 0L133.88 0L150.43 0Q150.95 0 151.33-0.38L151.33-0.38Q151.70-0.75 151.70-1.27L151.70-1.27L151.70-14.64Q151.70-15.18 151.33-15.54L151.33-15.54Q150.95-15.93 150.43-15.93L150.43-15.93L143.43-15.93Q142.91-15.93 142.52-15.54L142.52-15.54Q142.16-15.18 142.16-14.64L142.16-14.64L142.16-12.94Q142.16-12.42 142.52-12.03L142.52-12.03Q142.91-11.67 143.43-11.67L143.43-11.67L146.19-11.67Q146.72-11.67 147.08-11.29L147.08-11.29Q147.46-10.93 147.46-10.40L147.46-10.40L147.46-5.52Q147.46-5.00 147.08-4.62L147.08-4.62Q146.72-4.25 146.19-4.25L146.19-4.25L138.13-4.25Q137.61-4.25 137.22-4.62L137.22-4.62Q136.86-5.00 136.86-5.52L136.86-5.52ZM170.59-4.25L162.52-4.25Q162.00-4.25 161.61-4.62L161.61-4.62Q161.25-5.00 161.25-5.52L161.25-5.52L161.25-22.07Q161.25-22.60 161.61-22.96L161.61-22.96Q162.00-23.34 162.52-23.34L162.52-23.34L170.59-23.34Q171.11-23.34 171.47-22.96L171.47-22.96Q171.86-22.60 171.86-22.07L171.86-22.07L171.86-5.52Q171.86-5.00 171.47-4.62L171.47-4.62Q171.11-4.25 170.59-4.25L170.59-4.25ZM174.82-27.60L158.27-27.60Q157.74-27.60 157.38-27.21L157.38-27.21Q157.00-26.85 157.00-26.31L157.00-26.31L157.00-1.27Q157.00-0.75 157.38-0.38L157.38-0.38Q157.74 0 158.27 0L158.27 0L174.82 0Q175.34 0 175.73-0.38L175.73-0.38Q176.09-0.75 176.09-1.27L176.09-1.27L176.09-26.31Q176.09-26.85 175.73-27.21L175.73-27.21Q175.34-27.60 174.82-27.60L174.82-27.60Z"
        transform="translate(-1.9352671071788556, 27.600000381469727)"></path>
    </g>
    <g transform="matrix(1,0,0,1,178,0)">
      <path
        d="M38.34-44.88L38.34-47.97Q38.34-48.96 37.68-49.62L37.68-49.62Q36.98-50.32 36.02-50.32L36.02-50.32L5.84-50.32Q4.89-50.32 4.19-49.62L4.19-49.62Q3.53-48.96 3.53-47.97L3.53-47.97L3.53-23.60Q3.53-22.64 4.19-21.94L4.19-21.94Q4.89-21.28 5.84-21.28L5.84-21.28L28.30-21.28Q29.26-21.28 29.92-20.58L29.92-20.58Q30.62-19.92 30.62-18.97L30.62-18.97L30.62-10.07Q30.62-9.12 29.92-8.42L29.92-8.42Q29.26-7.76 28.30-7.76L28.30-7.76L5.84-7.76Q4.89-7.76 4.19-7.06L4.19-7.06Q3.53-6.40 3.53-5.40L3.53-5.40L3.53-2.32Q3.53-1.36 4.19-0.70L4.19-0.70Q4.89 0 5.84 0L5.84 0L36.02 0Q36.98 0 37.68-0.70L37.68-0.70Q38.34-1.36 38.34-2.32L38.34-2.32L38.34-26.69Q38.34-27.68 37.68-28.34L37.68-28.34Q36.98-29.04 36.02-29.04L36.02-29.04L13.60-29.04Q12.64-29.04 11.95-29.70L11.95-29.70Q11.28-30.40 11.28-31.35L11.28-31.35L11.28-40.25Q11.28-41.20 11.95-41.87L11.95-41.87Q12.64-42.56 13.60-42.56L13.60-42.56L36.02-42.56Q36.98-42.56 37.68-43.23L37.68-43.23Q38.34-43.92 38.34-44.88L38.34-44.88ZM72.78-7.76L58.08-7.76Q57.12-7.76 56.42-8.42L56.42-8.42Q55.76-9.12 55.76-10.07L55.76-10.07L55.76-40.25Q55.76-41.20 56.42-41.87L56.42-41.87Q57.12-42.56 58.08-42.56L58.08-42.56L72.78-42.56Q73.73-42.56 74.40-41.87L74.40-41.87Q75.09-41.20 75.09-40.25L75.09-40.25L75.09-10.07Q75.09-9.12 74.40-8.42L74.40-8.42Q73.73-7.76 72.78-7.76L72.78-7.76ZM80.50-50.32L50.32-50.32Q49.36-50.32 48.70-49.62L48.70-49.62Q48.00-48.96 48.00-47.97L48.00-47.97L48.00-2.32Q48.00-1.36 48.70-0.70L48.70-0.70Q49.36 0 50.32 0L50.32 0L80.50 0Q81.45 0 82.15-0.70L82.15-0.70Q82.81-1.36 82.81-2.32L82.81-2.32L82.81-47.97Q82.81-48.96 82.15-49.62L82.15-49.62Q81.45-50.32 80.50-50.32L80.50-50.32ZM128.28-44.88L128.28-47.97Q128.28-48.96 127.62-49.62L127.62-49.62Q126.92-50.32 125.97-50.32L125.97-50.32L95.79-50.32Q94.83-50.32 94.14-49.62L94.14-49.62Q93.47-48.96 93.47-47.97L93.47-47.97L93.47-23.60Q93.47-22.64 94.14-21.94L94.14-21.94Q94.83-21.28 95.79-21.28L95.79-21.28L118.25-21.28Q119.20-21.28 119.87-20.58L119.87-20.58Q120.56-19.92 120.56-18.97L120.56-18.97L120.56-10.07Q120.56-9.12 119.87-8.42L119.87-8.42Q119.20-7.76 118.25-7.76L118.25-7.76L95.79-7.76Q94.83-7.76 94.14-7.06L94.14-7.06Q93.47-6.40 93.47-5.40L93.47-5.40L93.47-2.32Q93.47-1.36 94.14-0.70L94.14-0.70Q94.83 0 95.79 0L95.79 0L125.97 0Q126.92 0 127.62-0.70L127.62-0.70Q128.28-1.36 128.28-2.32L128.28-2.32L128.28-26.69Q128.28-27.68 127.62-28.34L127.62-28.34Q126.92-29.04 125.97-29.04L125.97-29.04L103.55-29.04Q102.59-29.04 101.89-29.70L101.89-29.70Q101.23-30.40 101.23-31.35L101.23-31.35L101.23-40.25Q101.23-41.20 101.89-41.87L101.89-41.87Q102.59-42.56 103.55-42.56L103.55-42.56L125.97-42.56Q126.92-42.56 127.62-43.23L127.62-43.23Q128.28-43.92 128.28-44.88L128.28-44.88ZM162.83-29.04L148.13-29.04Q147.18-29.04 146.48-29.70L146.48-29.70Q145.82-30.40 145.82-31.35L145.82-31.35L145.82-40.25Q145.82-41.20 146.48-41.87L146.48-41.87Q147.18-42.56 148.13-42.56L148.13-42.56L162.83-42.56Q163.79-42.56 164.45-41.87L164.45-41.87Q165.15-41.20 165.15-40.25L165.15-40.25L165.15-31.35Q165.15-30.40 164.45-29.70L164.45-29.70Q163.79-29.04 162.83-29.04L162.83-29.04ZM170.55-50.32L140.38-50.32Q139.42-50.32 138.76-49.62L138.76-49.62Q138.06-48.96 138.06-47.97L138.06-47.97L138.06-2.32Q138.06-1.36 138.76-0.70L138.76-0.70Q139.42 0 140.38 0L140.38 0L143.46 0Q144.46 0 145.12-0.70L145.12-0.70Q145.82-1.36 145.82-2.32L145.82-2.32L145.82-18.97Q145.82-19.92 146.48-20.58L146.48-20.58Q147.18-21.28 148.13-21.28L148.13-21.28L162.83-21.28Q163.79-21.28 164.45-20.58L164.45-20.58Q165.15-19.92 165.15-18.97L165.15-18.97L165.15-2.32Q165.15-1.36 165.81-0.70L165.81-0.70Q166.51 0 167.47 0L167.47 0L170.55 0Q171.51 0 172.21-0.70L172.21-0.70Q172.87-1.36 172.87-2.32L172.87-2.32L172.87-47.97Q172.87-48.96 172.21-49.62L172.21-49.62Q171.51-50.32 170.55-50.32L170.55-50.32Z"
        transform="translate(-3.528691035327751, 50.31999969482422)"></path>
    </g>
  </g>
</svg>
